<?xml version="1.0" encoding="utf-8"?>
<!-- Generator: Adobe Illustrator 24.1.1, SVG Export Plug-In . SVG Version: 6.00 Build 0)  -->
<svg version="1.1" id="图层_1" xmlns="http://www.w3.org/2000/svg" xmlns:xlink="http://www.w3.org/1999/xlink" x="0px" y="0px"
	 viewBox="0 0 200 50" style="enable-background:new 0 0 200 50;" xml:space="preserve">
<style type="text/css">
	.st0{fill:#B40A1F;}
	.st1{fill:#95EAFF;}
	.st2{fill:#49A3FE;}
	.st3{fill:#0F13AE;}
	.st4{fill:#D1D2D4;}
	.st5{fill:#5179BC;}
	.st6{fill:#D5402F;}
	.st7{fill:#EBB621;}
	.st8{fill:#45A256;}
</style>
<path class="st0" d="M58.7,32.1h6.7v0.8h-6.7C58.7,32.9,58.7,32.1,58.7,32.1z"/>
<path class="st0" d="M58.7,30.6h6.7v0.8h-6.7V30.6z"/>
<path class="st0" d="M69,32.7V45c0,0,0,0.1,0.1,0.1h0.7c0,0,0.1-0.1,0.1-0.1V33.8L69,32.7z"/>
<path class="st0" d="M67.6,44.9C67.6,45,67.6,45,67.6,44.9l0.7,0.1c0,0,0.1-0.1,0.1-0.1v-13l-0.8-1L67.6,44.9z"/>
<path class="st0" d="M66.1,30v5.9h-7.9c0,0-0.1,0-0.1,0.1v0.6c0,0,0,0.1,0.1,0.1h7.9v0.8h-7.9c0,0-0.1,0-0.1,0.1v0.6
	c0,0,0,0.1,0.1,0.1h0h7.9v6.7c0,0,0,0.1,0.1,0.1h0.7c0,0,0.1-0.1,0.1-0.1V30.1"/>
<path class="st0" d="M54.5,44.9C54.5,45,54.6,45,54.5,44.9l0.7,0.1c0,0,0.1-0.1,0.1-0.1V32.7l-0.8,1V44.9z"/>
<path class="st0" d="M56,44.9C56,45,56,45,56,44.9l0.7,0.1c0,0,0.1-0.1,0.1-0.1V30.9L56,31.9V44.9z"/>
<path class="st0" d="M57.4,30.1v14.9c0,0,0,0.1,0.1,0.1h0.7c0,0,0.1-0.1,0.1-0.1V30.3"/>
<path d="M140.3,16.2h-8.1c-3.3,0-5.9,2.7-5.9,5.9c0,3.3,2.7,5.9,5.9,5.9h8.1c3.3,0,5.9-2.7,5.9-5.9
	C146.2,18.9,143.6,16.2,140.3,16.2L140.3,16.2z M132.2,27.6c-3,0-5.4-2.4-5.4-5.4c0-3,2.4-5.4,5.4-5.4c3,0,5.4,2.4,5.4,5.4
	C137.6,25.1,135.2,27.6,132.2,27.6z"/>
<path d="M175.9,40.9c-2.4,0-4.4-0.9-6.1-2.5c-1.7-1.7-2.5-3.7-2.5-6.1c0-2.4,0.9-4.4,2.5-6.1c1.7-1.7,3.8-2.5,6.1-2.5
	c2.4,0,4.4,0.9,6.1,2.5c1.7,1.7,2.5,3.8,2.5,6.1c0,0.6-0.1,1.2-0.2,1.7c0,0.2-0.2,0.3-0.4,0.3c-0.2,0-0.3-0.2-0.3-0.4
	c0.1-0.5,0.1-1,0.1-1.6c0-2.2-0.8-4.1-2.4-5.7c-1.6-1.5-3.5-2.3-5.6-2.3c-2.2,0-4.1,0.8-5.7,2.3c-1.5,1.6-2.3,3.5-2.3,5.7
	c0,2.2,0.8,4.1,2.3,5.6c1.6,1.6,3.5,2.4,5.7,2.4c1.1,0,2.2-0.2,3.2-0.6c0.2-0.1,0.4,0,0.4,0.2c0,0,0,0,0,0c0.1,0.2,0,0.4-0.2,0.4
	c0,0,0,0,0,0C178.3,40.7,177.2,40.9,175.9,40.9z"/>
<path d="M184.3,41.3h-3.3c-0.4,0-0.7-0.3-0.7-0.7c0-0.2,0.1-0.4,0.3-0.5l2.5-1.9c0,0,0.1-0.1,0.1-0.1c0,0,0.1-0.1,0.1-0.1
	c0.2-0.2,0.3-0.4,0.3-0.7c0-0.3-0.1-0.5-0.3-0.7c-0.2-0.2-0.4-0.3-0.7-0.3c-0.3,0-0.5,0.1-0.7,0.3c-0.2,0.2-0.3,0.4-0.3,0.7
	c0,0.4-0.3,0.7-0.7,0.7c-0.4,0-0.7-0.3-0.7-0.7c0-0.6,0.2-1.2,0.7-1.6c0.5-0.5,1-0.7,1.7-0.7c0.6,0,1.2,0.2,1.6,0.7
	c0.5,0.5,0.7,1,0.7,1.7c0,0.6-0.2,1.2-0.7,1.6c-0.1,0.1-0.1,0.1-0.2,0.2c0,0,0,0-0.1,0.1c0,0,0,0-0.1,0.1l-1,0.7h1.3
	c0.4,0,0.7,0.3,0.7,0.7C184.9,41,184.6,41.3,184.3,41.3z"/>
<path class="st1" d="M97.5,26c0,2.1,1.7,3.8,3.8,3.8s3.8-1.7,3.8-3.8s-1.7-3.8-3.8-3.8S97.5,24,97.5,26z"/>
<path class="st2" d="M103.2,36.3c-0.3,0-0.5,0.2-0.5,0.5v0.8c0,0,0,0-0.1,0c-0.1,0.1-0.3,0.1-0.6,0.1h-2.8c-0.2,0-0.4,0-0.6-0.1
	c-0.1,0-0.1,0-0.1,0v-0.8c0-0.3-0.2-0.5-0.5-0.5c-0.3,0-0.5,0.2-0.5,0.5v0.8c0,0.7,0.8,1.1,1.6,1.1h2.8c0.9,0,1.6-0.4,1.6-1.1v-0.8
	C103.7,36.5,103.5,36.3,103.2,36.3L103.2,36.3z"/>
<path class="st2" d="M113.2,21.3c0,0.3,0.2,0.5,0.5,0.5c0.3,0,0.5-0.2,0.5-0.5s-0.2-0.5-0.5-0.5C113.5,20.8,113.2,21,113.2,21.3z"/>
<path class="st2" d="M112.7,29.8c0,0.3,0.2,0.5,0.5,0.5c0.3,0,0.5-0.2,0.5-0.5s-0.2-0.5-0.5-0.5C113,29.3,112.7,29.5,112.7,29.8z"/>
<path class="st2" d="M106.2,13.8c0,0.3,0.2,0.5,0.5,0.5c0.3,0,0.5-0.2,0.5-0.5c0-0.3-0.2-0.5-0.5-0.5
	C106.5,13.3,106.2,13.5,106.2,13.8z"/>
<path class="st2" d="M94.2,14.3c0,0.3,0.2,0.5,0.5,0.5c0.3,0,0.5-0.2,0.5-0.5c0-0.3-0.2-0.5-0.5-0.5C94.5,13.8,94.2,14,94.2,14.3z"
	/>
<path class="st2" d="M87.7,21.3c0,0.3,0.2,0.5,0.5,0.5s0.5-0.2,0.5-0.5s-0.2-0.5-0.5-0.5S87.7,21,87.7,21.3z"/>
<path class="st2" d="M88.2,29.8c0,0.3,0.2,0.5,0.5,0.5s0.5-0.2,0.5-0.5s-0.2-0.5-0.5-0.5S88.2,29.5,88.2,29.8z"/>
<path class="st2" d="M99.2,25.8c0,0.8,0.7,1.5,1.5,1.5s1.5-0.7,1.5-1.5s-0.7-1.5-1.5-1.5S99.2,25,99.2,25.8z"/>
<path class="st2" d="M100.7,21.3c-2.5,0-4.5,2-4.5,4.5c0,1.4,0.6,2.7,1.7,3.5c0.2,0.2,0.5,0.1,0.7-0.1c0.2-0.2,0.1-0.5-0.1-0.7
	c-1.5-1.2-1.8-3.4-0.6-4.9s3.4-1.8,4.9-0.6c1.5,1.2,1.8,3.4,0.6,4.9c-0.1,0.2-0.3,0.4-0.5,0.5c-0.2,0.2-0.2,0.5,0,0.7
	c0.2,0.2,0.5,0.2,0.7,0.1c1.9-1.6,2.1-4.4,0.5-6.3C103.3,21.9,102.1,21.3,100.7,21.3z"/>
<path class="st3" d="M103.7,34.9c0,0.4-0.5,0.9-1.2,0.9H99c-0.7,0-1.2-0.4-1.2-0.9v-1.3c0-0.3-0.2-0.5-0.5-0.5
	c-0.3,0-0.5,0.2-0.5,0.5v1.3c0,1.1,1,1.9,2.2,1.9h3.5c1.2,0,2.2-0.8,2.2-1.9v-1.3c0-0.3-0.2-0.5-0.5-0.5c-0.3,0-0.5,0.2-0.5,0.5
	V34.9z"/>
<path class="st3" d="M100.9,16.3c-5.1,0-9.2,4.1-9.2,9.2c0,3.6,2.1,6.8,5.3,8.3c0.3,0.1,0.5,0,0.7-0.2c0.1-0.3,0-0.5-0.2-0.7
	c-2.9-1.3-4.7-4.2-4.7-7.4c0-4.5,3.7-8.2,8.2-8.2s8.2,3.7,8.2,8.2c0,3.3-2,6.2-5,7.5c-0.3,0.1-0.4,0.4-0.2,0.7
	c0.1,0.2,0.4,0.4,0.6,0.3c3.4-1.4,5.6-4.7,5.6-8.4C110.1,20.4,106,16.3,100.9,16.3z M114.7,25.5h-2.5c-0.3,0-0.5,0.2-0.5,0.5
	s0.2,0.5,0.5,0.5h2.5c0.3,0,0.5-0.2,0.5-0.5S115,25.5,114.7,25.5z M89.2,25.3h-2.5c-0.3,0-0.5,0.2-0.5,0.5s0.2,0.5,0.5,0.5h2.5
	c0.3,0,0.5-0.2,0.5-0.5S89.5,25.3,89.2,25.3z"/>
<path class="st3" d="M102.2,33.8h-3c-0.3,0-0.5,0.2-0.5,0.5s0.2,0.5,0.5,0.5h3c0.3,0,0.5-0.2,0.5-0.5S102.5,33.8,102.2,33.8z
	 M101.2,14.8c0.3,0,0.5-0.2,0.5-0.5V12c0-0.3-0.2-0.5-0.5-0.5c-0.3,0-0.5,0.2-0.5,0.5v2.4C100.7,14.6,101,14.8,101.2,14.8z M92,18
	l-1.9-1.9c-0.2-0.2-0.5-0.2-0.7,0c-0.2,0.2-0.2,0.5,0,0.7l1.9,1.9c0.2,0.2,0.5,0.2,0.7,0C92.2,18.5,92.2,18.2,92,18
	C92,18,92,18,92,18z M112.6,16.1c-0.2-0.2-0.5-0.2-0.7,0c0,0,0,0,0,0L110,18c-0.2,0.2-0.2,0.5,0,0.7c0.2,0.2,0.5,0.2,0.7,0l1.9-1.9
	C112.8,16.6,112.8,16.3,112.6,16.1C112.6,16.1,112.6,16.1,112.6,16.1z"/>
<path class="st3" d="M101.2,29.8c0-0.3-0.2-0.5-0.5-0.5c-0.3,0-0.5,0.2-0.5,0.5v2.5c0,0.3,0.2,0.5,0.5,0.5c0.3,0,0.5-0.2,0.5-0.5
	V29.8z"/>
<path d="M28,12.4c-6,0-10.2,9.9-10.2,15.3c0,5.5,4.6,10.2,10.2,10.2s10.2-4.7,10.2-10.2C38.1,22.3,33.9,12.4,28,12.4z M28,36.3
	c-4.7,0-8.7-4-8.7-8.7c0-4.6,3.7-13.8,8.7-13.8s8.7,9.2,8.7,13.8C36.6,32.4,32.7,36.3,28,36.3z"/>
<path class="st4" d="M23.6,19.8c0,0.7,0.6,1.3,1.3,1.3s1.3-0.6,1.3-1.3c0-0.7-0.6-1.3-1.3-1.3S23.6,19.1,23.6,19.8z"/>
<path class="st4" d="M21.3,27.3c0,1.2,1,2.2,2.2,2.2c1.2,0,2.2-1,2.2-2.2s-1-2.2-2.2-2.2C22.3,25.1,21.3,26.1,21.3,27.3z"/>
<path class="st4" d="M28.2,30.3c0,1.8,1.5,3.3,3.3,3.3c1.8,0,3.3-1.5,3.3-3.3c0-1.8-1.5-3.3-3.3-3.3S28.2,28.5,28.2,30.3
	C28.2,30.3,28.2,30.3,28.2,30.3z"/>
<path class="st5" d="M47.4,18.7c-0.2,0.8-0.6,1.6-0.9,2.2l-0.6-0.2c0.6-1.1,1.1-2.8,1.2-3.9l0.6-0.1c0,0.5-0.2,0.9-0.3,1.4l3.4-1
	l0.1,0.5L47.4,18.7z M47.4,22.1l0.5-0.2l1.9,6.6l-0.5,0.2L47.4,22.1z M47.3,20.6l0.3-0.5c0.5,0.3,1.3,0.7,1.9,1.1l-0.3,0.5
	C48.6,21.3,47.8,20.8,47.3,20.6z M48.3,18.8l0.3-0.4c0.3,0.3,0.9,0.6,1.2,0.9l-0.4,0.4C49.4,19.5,48.7,19.1,48.3,18.8z M54.1,21
	l1.2,4.3l-4.2,1.2L50,22.2L54.1,21z M56.4,25.8c0.9-0.3,1-0.4,0.7-1.3l-1.5-5.4L50,20.7l-0.2-0.6l6.2-1.8l1.7,6.2
	c0.3,1.2,0.2,1.5-1.1,1.8l-1.4,0.4L55,26.2C55,26.2,56.4,25.8,56.4,25.8z M51,24l3.2-0.9l-0.4-1.4l-3.2,0.9L51,24z M54.7,25
	l-0.4-1.4l-3.2,0.9l0.4,1.4L54.7,25z M52.1,17.4c-0.1,0.7-0.3,1.2-0.5,1.8l-0.5-0.1c0.4-1.2,0.7-2.4,0.8-3.6l0.6-0.1
	c0,0.5-0.2,0.9-0.2,1.4l3.9-1.1l0.1,0.5C56.3,16.1,52.1,17.4,52.1,17.4z M53.4,17.4l0.3-0.4c0.4,0.2,0.9,0.6,1.3,0.9l-0.3,0.4
	C54.2,18,53.8,17.7,53.4,17.4z"/>
<path class="st6" d="M77.4,18.2l0.7,2.4l-0.5,0.2l-0.7-2.4l-5,1.4l-0.2-0.6l5-1.4l-0.5-1.6l-3.7,1.1l-1.4-5l2.4-0.7
	c-0.4-0.3-1.4-1-1.8-1.3L72,9.8c0.4,0.2,1.5,1,1.9,1.3l-0.3,0.4l2.5-0.7C76.4,10,76.8,9,77,8.3l0.6,0.1c-0.2,0.6-0.5,1.4-0.8,2.1
	l2.3-0.7l1.4,5.1L76.8,16l0.5,1.6l5-1.4l0.2,0.6L77.4,18.2C77.4,18.3,77.4,18.2,77.4,18.2z M72.2,14.2l3.2-0.9l-0.5-1.7l-3.2,0.9
	L72.2,14.2z M72.8,16.5l3.2-0.9l-0.5-1.7l-3.2,0.9L72.8,16.5z M75.5,11.4l0.5,1.7l3.2-0.9l-0.5-1.7L75.5,11.4z M79.8,14.6l-0.5-1.7
	l-3.2,0.9l0.5,1.7L79.8,14.6z"/>
<path class="st7" d="M118.5,35.5h1.4v0.6h-1.4v2.5l1.2-0.6l0.1,0.6l-1.3,0.6V43c0,0.9-0.2,1.1-1.2,1.1h-0.8l-0.1-0.6h0.7
	c0.7,0,0.9-0.2,0.9-0.7v-3.4l-1.7,0.7l-0.1-0.6c0.5-0.2,1.1-0.5,1.8-0.7v-2.7h-1.6v-0.6h1.6v-2.5h0.6L118.5,35.5L118.5,35.5z
	 M123.4,40v-1.4h-2.9v-4.3c0.6-0.1,1.4-0.3,2.1-0.7l0.2,0.5c-0.7,0.2-1.3,0.5-1.8,0.6v1.4h1.7v0.5H121v1.5h2.3v-5.1h0.6v5.1h2.4
	v-1.5h-1.7v-0.5h1.8v-1.5h-1.8v-0.5h2.4v4.4h-2.9V40h2.5v0.5c-0.7,1-1.4,1.6-2.4,2.2c0.9,0.4,2,0.7,3.6,1l-0.2,0.6
	c-1.7-0.3-2.9-0.7-4-1.2c-1.1,0.5-2.4,0.9-4.2,1.3l-0.2-0.6c1.6-0.3,2.9-0.7,3.8-1.1c-0.7-0.5-1.4-1.1-2.1-2l0.3-0.2h-1V40
	C120.2,40,123.4,40,123.4,40z M123.6,42.4c0.8-0.5,1.5-1.1,2.1-1.9h-4.3C122.1,41.4,122.8,41.9,123.6,42.4z"/>
<path class="st8" d="M142.1,44.3l-0.2-0.6c1.1-0.5,2.5-1.2,3.5-1.9l0.2,0.5C144.6,43.1,143.2,43.8,142.1,44.3z M151.7,41.1l-3.7,0.1
	v1.9c0,1-0.3,1.3-1.5,1.3h-1.1l-0.1-0.6h1.1c0.9,0,1.1-0.2,1.1-0.9v-1.7c-1.6,0-3.4,0.1-4.8,0.2l-0.1-0.5c0.5,0,1-0.1,1.1-0.1
	c1.5-0.4,2.9-1.1,4.1-1.6c-1.1,0-3,0.1-4.4,0.2l-0.1-0.4c0.4,0,0.8-0.1,0.9-0.2c1.1-0.5,2.3-1.1,3.1-1.8l0.3,0.3
	c-0.7,0.5-1.4,0.9-2.2,1.4l3.3-0.1c0.7-0.3,1.2-0.7,1.7-1.1l0.3,0.4c-1.6,1-3.3,2-5.2,2.7l5.7-0.2c-0.5-0.4-1-0.7-1.3-1.1l0.3-0.4
	c0.7,0.6,1.9,1.5,2.6,2.1l-0.3,0.4C152.2,41.5,152,41.4,151.7,41.1z M142.6,36.4h4.7v-1.5h-4.7v-0.5h4.7v-1.2h0.6v1.2h4.7v0.5h-4.7
	v1.5h4.7v2.1h-0.6v-1.6h-8.9v1.6h-0.6L142.6,36.4L142.6,36.4z M149.3,42.4l0.2-0.5c0.9,0.4,2.9,1.4,3.8,1.9l-0.2,0.5
	C152.1,43.8,150.2,42.8,149.3,42.4z"/>
</svg>
